<?xml version="1.0" encoding="utf-8"?>
<!DOCTYPE svg PUBLIC "-//W3C//DTD SVG 20010904//EN" "http://www.w3.org/TR/2001/REC-SVG-20010904/DTD/svg10.dtd">
<svg height="140.000000pt" preserveAspectRatio="xMidYMid meet" version="1.0" viewBox="0 0 256.000000 140.000000" width="256.000000pt" xmlns="http://www.w3.org/2000/svg"><rect fill="#000000" height="100%" id="bg" width="100%" x="0" y="0"/>
<g fill="#FFFFFF" stroke="none" transform="translate(0.000000,140.000000) scale(0.100000,-0.100000)">
<path d="M924 1257 c100 -63 91 -127 -57 -422 -106 -211 -123 -298 -75 -390 21 -41 49 -64 95 -81 56 -20 73 -17 36 7 -22 14 -37 34 -44 60 -18 57 6 132 97 308 80 155 124 269 124 322 0 105 -62 181 -165 202 -27 6 -28 5 -11 -6z"/>
<path d="M168 1254 c-5 -4 -8 -200 -8 -436 l0 -429 263 4 c290 4 344 12 332 50 -4 12 -10 56 -12 98 -5 71 -2 84 32 169 35 88 36 92 19 111 -17 19 -17 21 15 49 118 108 57 319 -108 371 -41 13 -522 25 -533 13z m501 -185 c27 -26 32 -36 29 -71 -2 -31 -10 -46 -31 -62 -26 -19 -42 -21 -180 -21 l-152 0 -3 93 -3 92 154 0 154 0 32 -31z m14 -342 c65 -49 61 -115 -8 -154 -37 -22 -50 -23 -195 -20 -141 2 -155 4 -154 20 1 9 2 56 3 103 l1 85 158 -3 c156 -3 159 -3 195 -31z"/>
<path d="M1040 1251 c0 -5 7 -14 16 -22 18 -15 49 -73 58 -111 l6 -28 220 0 219 0 37 45 c20 25 59 59 85 77 27 17 49 35 49 40 0 4 -155 8 -345 8 -191 0 -345 -4 -345 -9z"/>
<path d="M1868 1249 c-223 -32 -372 -250 -338 -491 22 -155 100 -267 225 -324 79 -36 146 -45 331 -42 l169 3 0 250 0 250 -195 3 -195 2 -37 -74 c-20 -41 -34 -77 -31 -80 4 -3 68 -6 144 -6 116 0 138 -2 143 -16 9 -24 7 -147 -3 -163 -14 -21 -183 -10 -241 16 -100 44 -156 146 -147 264 7 80 24 123 68 174 61 69 99 79 307 83 100 2 182 6 182 8 0 8 -94 139 -104 146 -14 10 -205 8 -278 -3z"/>
<path d="M1146 979 c-10 -72 -35 -133 -116 -280 -100 -184 -110 -233 -56 -296 l24 -28 -5 67 c-6 65 -5 67 53 178 40 76 66 115 82 121 13 5 100 9 193 9 l170 0 -38 73 -38 72 -120 5 -120 5 -5 57 c-7 74 -16 81 -24 17z"/>
<path d="M94 287 c-3 -8 -4 -36 -2 -63 3 -44 5 -49 29 -52 30 -3 63 23 52 41 -4 7 -7 28 -8 47 0 32 -3 35 -33 38 -21 2 -34 -2 -38 -11z m56 -21 c0 -8 -7 -16 -15 -20 -10 -4 -15 1 -15 14 0 11 7 20 15 20 8 0 15 -6 15 -14z m0 -56 c0 -13 -7 -20 -19 -20 -14 0 -18 5 -14 20 3 11 12 20 19 20 8 0 14 -9 14 -20z"/>
<path d="M194 286 c-3 -7 -4 -35 -2 -62 3 -43 6 -49 27 -52 13 -2 28 1 34 7 8 8 3 11 -16 11 -21 0 -25 4 -20 18 4 9 11 20 17 25 8 5 7 10 -3 16 -31 20 10 48 52 35 13 -4 17 -17 17 -60 0 -30 5 -54 10 -54 6 0 10 24 10 54 0 44 3 56 19 61 37 11 51 -4 51 -55 0 -27 5 -52 10 -55 6 -4 10 15 10 49 0 43 3 56 15 56 8 0 15 5 15 10 0 6 -47 10 -120 10 -93 0 -122 -3 -126 -14z"/>
<path d="M460 235 l0 -65 30 0 c17 0 30 5 30 10 0 6 -9 10 -21 10 -16 0 -20 5 -17 23 2 12 9 21 16 20 6 -2 12 2 12 7 0 6 -7 10 -15 10 -8 0 -15 7 -15 15 0 8 9 15 20 15 11 0 20 5 20 10 0 6 -13 10 -30 10 l-30 0 0 -65z"/>
<path d="M540 241 c0 -69 17 -92 22 -29 l3 43 19 -37 c30 -57 46 -49 46 22 0 33 -4 60 -10 60 -5 0 -10 -16 -10 -35 0 -19 -4 -35 -8 -35 -5 0 -16 16 -25 35 -25 51 -37 43 -37 -24z"/>
<path d="M668 289 c-37 -21 -15 -119 27 -119 24 0 26 18 3 22 -20 3 -23 9 -23 43 0 32 5 42 25 52 22 11 22 13 5 13 -11 -1 -28 -5 -37 -11z"/>
<path d="M742 288 c-29 -29 -5 -118 32 -118 23 0 46 36 46 71 0 40 -15 59 -45 59 -12 0 -26 -5 -33 -12z m48 -19 c14 -25 3 -79 -16 -79 -19 0 -29 46 -15 76 13 29 17 30 31 3z"/>
<path d="M840 245 c0 -49 3 -57 25 -67 38 -17 55 4 55 68 0 30 -4 54 -10 54 -5 0 -10 -25 -10 -55 0 -48 -2 -55 -20 -55 -18 0 -20 7 -20 55 0 30 -4 55 -10 55 -5 0 -10 -25 -10 -55z"/>
<path d="M944 287 c-8 -23 0 -112 11 -112 5 0 13 14 16 30 5 27 7 28 14 10 12 -30 26 -45 36 -39 5 3 6 11 2 17 -5 7 -8 32 -8 57 0 43 -1 45 -33 48 -21 2 -34 -2 -38 -11z m56 -27 c0 -11 -7 -20 -15 -20 -8 0 -15 9 -15 20 0 11 7 20 15 20 8 0 15 -9 15 -20z"/>
<path d="M1040 290 c0 -5 7 -10 15 -10 12 0 15 -13 15 -55 0 -30 5 -55 10 -55 6 0 10 25 10 55 0 42 3 55 15 55 8 0 15 5 15 10 0 6 -18 10 -40 10 -22 0 -40 -4 -40 -10z"/>
<path d="M1170 233 c0 -78 17 -76 22 2 2 30 8 50 15 50 6 0 15 3 19 8 4 4 -7 7 -24 7 l-32 0 0 -67z"/>
<path d="M1246 238 c1 -45 6 -64 16 -66 10 -2 13 12 13 63 0 51 -3 65 -15 65 -12 0 -15 -13 -14 -62z"/>
<path d="M1300 241 c0 -69 17 -92 22 -29 l3 43 19 -37 c30 -57 46 -49 46 22 0 68 -17 82 -22 18 l-3 -43 -24 43 c-14 23 -28 42 -33 42 -4 0 -8 -27 -8 -59z"/>
<path d="M1436 288 c-3 -7 -9 -28 -15 -47 -6 -19 -11 -43 -11 -55 1 -20 2 -20 14 -3 17 22 35 22 52 0 21 -30 24 -11 7 55 -10 39 -21 62 -30 62 -7 0 -15 -6 -17 -12z m24 -48 c0 -16 -4 -30 -10 -30 -5 0 -10 14 -10 30 0 17 5 30 10 30 6 0 10 -13 10 -30z"/>
<path d="M1515 289 c-9 -25 -1 -114 10 -111 6 1 9 18 8 37 -3 43 10 45 27 5 7 -16 18 -35 26 -41 12 -10 14 -1 14 55 0 37 -4 66 -10 66 -5 0 -10 -17 -11 -37 0 -33 -2 -36 -12 -19 -7 10 -20 28 -29 40 -14 18 -17 19 -23 5z"/>
<path d="M1636 278 c-21 -30 -20 -71 2 -91 20 -19 52 -23 52 -7 0 6 -9 10 -20 10 -17 0 -20 7 -20 43 0 36 4 46 23 55 l22 11 -22 0 c-12 1 -29 -9 -37 -21z"/>
<path d="M1707 238 c1 -44 5 -64 15 -66 10 -2 13 14 13 63 0 51 -3 65 -15 65 -12 0 -15 -13 -13 -62z"/>
<path d="M1771 253 c-7 -26 -14 -56 -17 -65 -3 -10 -1 -18 5 -18 6 0 11 7 11 15 0 21 40 19 56 -2 12 -16 13 -15 13 12 -1 43 -23 99 -41 103 -11 2 -19 -11 -27 -45z m39 -19 c0 -23 -14 -32 -24 -16 -8 13 5 52 15 46 5 -3 9 -16 9 -30z"/>
<path d="M1860 235 l0 -65 30 0 c17 0 30 5 30 10 0 6 -9 10 -20 10 -18 0 -20 7 -20 55 0 30 -4 55 -10 55 -6 0 -10 -28 -10 -65z"/>
<path d="M1988 289 c-13 -7 -18 -23 -18 -53 0 -51 14 -66 53 -59 22 4 27 11 27 34 0 19 -5 29 -15 29 -12 0 -14 -7 -9 -26 6 -22 4 -25 -12 -22 -13 2 -20 13 -22 36 -4 37 14 66 35 58 7 -3 13 -1 13 4 0 13 -30 12 -52 -1z"/>
<path d="M2070 241 c0 -33 5 -63 10 -66 6 -3 10 4 10 18 0 37 12 40 32 6 23 -37 38 -31 17 8 -11 20 -11 27 -1 30 15 6 16 35 0 51 -7 7 -25 12 -40 12 -28 0 -28 -1 -28 -59z m58 20 c-5 -24 -38 -27 -38 -3 0 10 3 21 6 25 11 11 35 -5 32 -22z"/>
<path d="M2182 288 c-29 -29 -5 -118 32 -118 23 0 46 36 46 71 0 40 -15 59 -45 59 -12 0 -26 -5 -33 -12z m51 -54 c-1 -41 -6 -49 -28 -41 -19 8 -21 83 -2 90 20 7 31 -11 30 -49z"/>
<path d="M2282 244 c3 -64 23 -88 56 -68 20 13 31 124 12 124 -6 0 -10 -23 -10 -55 0 -48 -2 -55 -20 -55 -18 0 -20 7 -20 55 0 32 -4 55 -10 55 -7 0 -10 -22 -8 -56z"/>
<path d="M2382 238 c2 -38 7 -61 13 -58 6 3 10 11 10 18 0 7 11 18 25 25 48 24 33 77 -22 77 l-29 0 3 -62z m58 23 c0 -22 -15 -35 -29 -27 -13 9 -1 46 15 46 8 0 14 -9 14 -19z"/>
</g>
</svg>