<?xml version="1.0" encoding="utf-8"?>
<!DOCTYPE svg PUBLIC "-//W3C//DTD SVG 20010904//EN" "http://www.w3.org/TR/2001/REC-SVG-20010904/DTD/svg10.dtd">
<svg height="514.000000pt" preserveAspectRatio="xMidYMid meet" version="1.0" viewBox="0 0 3112.000000 514.000000" width="3112.000000pt" xmlns="http://www.w3.org/2000/svg"><rect fill="#000000" height="100%" id="bg" width="100%" x="0" y="0"/>
<g fill="#FFFFFF" stroke="none" transform="translate(0.000000,514.000000) scale(0.100000,-0.100000)">
<path d="M13085 4305 c-78 -20 -117 -40 -171 -88 -71 -64 -106 -139 -112 -237 -7 -123 37 -219 156 -343 l47 -49 -35 -26 c-90 -68 -179 -165 -211 -230 -31 -62 -34 -74 -34 -167 0 -89 3 -107 29 -162 64 -139 210 -223 386 -223 137 0 243 46 360 157 l68 63 95 -100 94 -101 134 3 134 3 -164 167 c-100 102 -162 172 -158 181 3 7 46 61 96 120 l92 106 -3 127 -3 128 -160 -179 -160 -178 -137 144 c-76 79 -137 147 -135 152 1 4 36 33 77 65 144 111 207 220 197 342 -8 95 -32 153 -89 215 -94 103 -251 147 -393 110z m200 -185 c73 -45 106 -152 71 -233 -15 -35 -73 -93 -151 -151 l-50 -37 -52 58 c-123 137 -141 256 -51 340 60 56 163 67 233 23z m-1 -824 c80 -84 146 -158 146 -164 0 -16 -118 -121 -162 -143 -52 -26 -131 -35 -188 -19 -64 17 -134 91 -148 156 -21 100 20 193 121 274 34 27 67 49 73 50 6 0 77 -69 158 -154z"/>
<path d="M15325 4310 c-304 -49 -486 -361 -359 -612 67 -132 163 -189 424 -248 195 -45 245 -68 294 -137 58 -83 46 -205 -28 -277 -124 -120 -382 -110 -508 21 -38 40 -88 134 -88 168 -1 43 -11 44 -108 14 -50 -17 -92 -34 -92 -38 0 -32 46 -147 78 -197 66 -101 164 -170 298 -210 82 -24 267 -24 349 1 161 48 272 150 319 293 22 65 23 179 2 246 -30 98 -115 190 -225 242 -50 24 -93 36 -336 93 -152 36 -217 102 -217 221 0 147 118 251 285 251 84 0 134 -14 193 -54 53 -35 111 -114 120 -163 l6 -32 89 30 90 30 -7 32 c-11 52 -64 144 -114 194 -53 54 -130 98 -203 118 -67 17 -199 25 -262 14z"/>
<path d="M18458 4310 c-170 -31 -293 -94 -408 -210 -97 -96 -153 -192 -192 -326 -20 -67 -23 -102 -23 -229 1 -175 19 -256 88 -389 62 -122 181 -238 307 -299 134 -66 200 -82 345 -81 139 0 236 23 346 80 182 96 303 245 365 449 24 80 27 107 28 235 0 174 -15 245 -79 375 -92 185 -253 318 -457 375 -82 23 -247 34 -320 20z m282 -201 c168 -48 295 -185 352 -379 26 -90 26 -279 0 -370 -58 -197 -188 -332 -371 -386 -75 -22 -218 -22 -296 1 -178 52 -305 180 -361 364 -23 73 -27 105 -27 206 1 196 47 321 162 436 142 142 335 188 541 128z"/>
<path d="M24478 4310 c-248 -45 -438 -183 -543 -395 -64 -130 -79 -201 -79 -375 1 -128 4 -155 28 -235 62 -205 188 -359 368 -451 112 -57 205 -78 343 -78 145 -1 211 15 345 81 79 39 109 61 180 132 97 98 154 194 192 327 33 115 33 343 0 458 -73 255 -263 445 -512 516 -84 23 -248 34 -322 20z m272 -197 c89 -25 151 -62 221 -132 115 -115 161 -239 161 -436 1 -102 -3 -133 -25 -205 -74 -241 -264 -382 -512 -382 -251 0 -443 149 -517 402 -28 95 -27 271 1 371 40 142 112 246 224 319 127 83 290 106 447 63z"/>
<path d="M27690 4314 c-209 -37 -359 -163 -405 -339 -38 -148 3 -287 114 -388 80 -71 126 -90 345 -138 154 -34 173 -41 232 -82 138 -96 115 -302 -43 -381 -89 -45 -251 -43 -348 4 -88 42 -162 143 -181 243 -4 22 -11 36 -18 34 -6 -2 -48 -16 -93 -31 -46 -15 -83 -33 -83 -40 0 -29 34 -125 61 -173 36 -62 133 -155 198 -188 78 -39 167 -58 281 -59 124 -1 190 13 283 62 311 161 318 575 11 730 -70 35 -94 42 -279 83 -157 35 -198 52 -243 103 -73 83 -68 202 11 292 62 71 124 96 237 95 88 0 164 -29 219 -83 40 -39 91 -126 91 -155 0 -8 30 -2 90 20 85 30 89 33 83 57 -15 63 -61 139 -119 197 -63 64 -115 93 -209 119 -53 14 -194 25 -235 18z"/>
<path d="M485 4278 c8 -23 425 -1469 425 -1474 0 -2 46 -3 102 -2 l102 3 191 597 c104 328 192 599 195 602 3 2 92 -268 199 -600 l195 -604 102 0 103 0 20 68 c50 167 401 1406 401 1414 0 4 -45 8 -100 8 l-99 0 -15 -52 c-9 -29 -81 -294 -161 -588 -80 -294 -148 -536 -150 -538 -3 -3 -58 163 -311 941 l-77 238 -106 -3 -106 -3 -185 -577 c-102 -318 -188 -578 -191 -578 -4 0 -273 939 -327 1143 -4 15 -18 17 -108 17 -78 0 -102 -3 -99 -12z"/>
<path d="M3326 4282 c-7 -12 -577 -1442 -583 -1464 -5 -16 4 -18 100 -18 l105 0 36 93 c19 50 55 144 79 207 l43 115 334 0 335 0 80 -207 80 -208 108 0 c59 0 107 1 107 3 0 1 -132 335 -294 742 l-294 740 -115 3 c-64 1 -118 -1 -121 -6z m248 -545 c69 -180 126 -330 126 -332 0 -3 -117 -5 -261 -5 -205 0 -260 3 -257 13 96 259 255 664 259 659 3 -4 63 -155 133 -335z"/>
<path d="M4520 3545 l0 -745 100 0 100 0 0 745 0 745 -100 0 -100 0 0 -745z"/>
<path d="M5090 4195 l0 -95 250 0 250 0 0 -650 0 -650 100 0 100 0 0 650 0 650 250 0 250 0 0 95 0 95 -600 0 -600 0 0 -95z"/>
<path d="M6650 3545 l0 -745 100 0 100 0 0 582 c0 320 4 578 8 573 5 -6 121 -268 257 -582 l248 -573 92 0 92 0 254 579 254 580 3 -580 2 -579 100 0 100 0 0 745 0 746 -136 -3 -135 -3 -259 -592 c-142 -326 -262 -597 -266 -604 -5 -8 -9 -8 -15 3 -6 12 -493 1130 -516 1186 -4 9 -42 12 -144 12 l-139 0 0 -745z"/>
<path d="M9209 4263 c-6 -15 -137 -345 -291 -733 -154 -388 -283 -711 -285 -718 -4 -10 18 -12 103 -10 l108 3 43 115 c24 63 60 157 79 208 l36 92 332 0 332 0 80 -207 81 -208 106 -3 c59 -1 107 1 107 5 0 4 -132 339 -293 743 l-293 735 -117 3 -117 3 -11 -28z m131 -197 c0 -2 56 -149 125 -326 69 -177 125 -327 125 -331 0 -5 -115 -9 -255 -9 -193 0 -255 3 -255 12 0 21 245 658 252 658 5 0 8 -2 8 -4z"/>
<path d="M10410 3545 l0 -745 100 0 100 0 0 605 c0 333 3 605 8 605 4 0 187 -273 407 -605 l400 -605 103 0 102 0 0 745 0 745 -100 0 -100 0 -2 -571 -3 -571 -370 571 -370 570 -137 1 -138 0 0 -745z"/>
<path d="M16370 3545 l0 -745 100 0 100 0 0 228 0 227 107 113 106 113 254 -341 254 -340 126 0 125 0 -24 33 c-13 17 -154 202 -312 410 -158 208 -286 382 -284 386 2 5 120 134 263 287 144 154 280 300 304 327 l44 47 -131 0 -130 0 -349 -383 -348 -384 -3 384 -2 383 -100 0 -100 0 0 -745z"/>
<path d="M19760 3545 l0 -745 455 0 455 0 0 95 0 95 -355 0 -355 0 0 650 0 650 -100 0 -100 0 0 -745z"/>
<path d="M21060 3545 l0 -745 105 0 105 0 0 745 0 745 -105 0 -105 0 0 -745z"/>
<path d="M21800 3545 l0 -745 100 0 100 0 0 583 c1 384 4 576 10 565 8 -13 472 -1074 497 -1135 4 -9 33 -13 97 -13 l92 0 255 581 254 581 3 -581 2 -581 100 0 100 0 0 745 0 746 -136 -3 -137 -3 -262 -600 c-144 -330 -265 -600 -269 -600 -4 0 -125 271 -268 603 l-261 602 -139 0 -138 0 0 -745z"/>
<path d="M25620 4283 c0 -4 125 -339 278 -745 l277 -738 100 0 100 0 245 638 c135 350 264 685 287 745 l41 108 -106 -3 -106 -3 -225 -607 c-124 -335 -228 -608 -231 -608 -3 0 -106 275 -230 610 l-223 610 -104 0 c-56 0 -103 -3 -103 -7z"/>
<path d="M28710 3545 l0 -745 100 0 100 0 0 221 0 221 26 32 c15 17 64 71 110 119 l84 88 252 -340 253 -340 128 -1 127 0 -135 178 c-74 97 -216 283 -314 413 l-179 235 190 205 c105 112 245 261 311 332 l119 127 -133 -1 -134 0 -350 -386 -350 -387 -3 387 -2 387 -100 0 -100 0 0 -745z"/>
<path d="M30270 3545 l0 -745 100 0 100 0 0 745 0 745 -100 0 -100 0 0 -745z"/>
<path d="M11547 1423 c-48 -131 -87 -241 -87 -245 0 -5 18 -8 39 -8 39 0 40 1 59 53 l20 52 108 0 109 0 19 -52 c18 -52 20 -53 57 -53 22 0 39 3 39 8 0 4 -39 114 -86 245 l-87 237 -51 0 -51 0 -88 -237z m186 30 c19 -56 33 -104 29 -107 -7 -7 -147 -8 -154 -1 -3 3 12 54 33 112 22 59 39 109 39 112 0 19 22 -29 53 -116z"/>
<path d="M12440 1416 l0 -246 118 0 c135 0 177 14 229 73 42 47 56 104 51 194 -6 96 -42 158 -110 191 -39 20 -69 25 -168 29 l-120 6 0 -247z m247 144 c45 -27 64 -70 65 -146 1 -119 -52 -174 -164 -174 l-58 0 0 170 0 170 63 0 c44 0 71 -6 94 -20z"/>
<path d="M13340 1653 c0 -4 39 -115 87 -245 l88 -238 47 0 c45 0 47 1 62 43 9 23 49 132 90 242 l74 200 -41 3 c-22 2 -43 -1 -46 -7 -4 -5 -35 -93 -71 -195 -35 -102 -66 -183 -69 -180 -3 3 -35 90 -71 192 l-66 187 -42 3 c-23 2 -42 0 -42 -5z"/>
<path d="M14414 1636 c-171 -80 -180 -350 -15 -440 175 -95 371 15 371 209 0 90 -16 134 -69 186 -73 74 -187 91 -287 45z m201 -75 c39 -22 75 -93 75 -150 0 -98 -69 -171 -161 -171 -116 0 -192 108 -159 225 29 105 146 151 245 96z"/>
<path d="M15435 1645 c-51 -18 -120 -91 -134 -141 -14 -48 -14 -138 -1 -184 40 -146 251 -209 365 -109 l35 31 0 -36 c0 -33 2 -36 30 -36 l30 0 0 125 0 125 -110 0 -110 0 0 -30 0 -30 70 0 c79 0 85 -8 50 -65 -25 -40 -70 -60 -131 -59 -101 1 -163 78 -157 191 4 66 21 100 70 136 58 43 176 27 213 -29 l15 -23 35 20 c27 16 33 24 26 38 -40 75 -190 113 -296 76z"/>
<path d="M16439 1633 c-6 -15 -45 -120 -86 -233 -42 -113 -78 -211 -80 -217 -4 -9 8 -13 39 -13 44 0 45 1 57 43 20 66 23 67 131 67 108 0 111 -1 131 -67 12 -42 13 -43 55 -43 l43 0 -38 108 c-22 59 -62 168 -89 242 l-49 135 -52 3 c-48 3 -52 1 -62 -25z m104 -171 c20 -59 37 -110 37 -114 0 -5 -36 -8 -80 -8 -44 0 -80 3 -80 8 0 14 74 222 80 222 3 0 22 -48 43 -108z"/>
<path d="M17260 1416 l0 -246 108 0 c132 0 173 11 221 59 86 86 86 289 0 368 -44 40 -98 55 -216 61 l-113 5 0 -247z m240 148 c46 -28 65 -70 65 -149 0 -121 -41 -167 -155 -173 l-70 -4 0 171 0 171 66 0 c43 0 76 -6 94 -16z"/>
<path d="M18310 1639 c-87 -39 -129 -103 -138 -205 -14 -180 132 -306 307 -264 112 27 181 116 181 235 0 85 -16 131 -61 180 -68 74 -194 97 -289 54z m195 -78 c39 -22 75 -93 75 -150 0 -127 -117 -206 -234 -157 -101 42 -127 193 -48 278 55 58 134 70 207 29z"/>
<path d="M19258 1639 c-45 -23 -68 -64 -68 -120 0 -57 45 -101 126 -124 127 -37 166 -76 130 -130 -39 -60 -164 -37 -188 35 -2 7 -18 9 -46 4 -38 -6 -42 -9 -36 -28 37 -119 236 -156 331 -61 29 29 33 39 33 85 0 45 -4 56 -32 84 -18 18 -55 40 -83 50 -153 53 -167 64 -149 113 21 60 136 63 172 4 16 -26 19 -27 55 -17 l37 11 -17 34 c-38 75 -178 106 -265 60z"/>
<path d="M1340 1395 l0 -75 4915 0 4915 0 0 75 0 75 -4915 0 -4915 0 0 -75z"/>
<path d="M19850 1395 l0 -75 4915 0 4915 0 0 75 0 75 -4915 0 -4915 0 0 -75z"/>
</g>
</svg>