<svg xmlns="http://www.w3.org/2000/svg" height="864.000000pt" preserveAspectRatio="xMidYMid meet" version="1.0" viewBox="0 0 1282.000000 864.000000" width="1282.000000pt">
  <g fill="#FFFFFF" stroke="none" transform="translate(0.000000,864.000000) scale(0.100000,-0.100000)">
    <path d="M6305 7479 c-134 -10 -380 -37 -407 -45 -17 -5 -18 -80 -18 -1388 l0 -1383 38 -6 c154 -25 301 -32 632 -32 403 0 507 9 724 64 199 51 339 121 457 229 233 215 309 566 183 850 -37 83 -108 177 -182 238 -68 56 -221 138 -279 150 -18 4 -33 10 -33 13 0 4 43 29 96 55 165 84 273 204 331 368 37 102 39 259 5 365 -86 276 -334 450 -723 509 -125 18 -642 27 -824 13z m673 -475 c83 -22 138 -52 183 -102 59 -63 73 -102 73 -202 -1 -100 -16 -141 -75 -205 -97 -105 -236 -145 -509 -145 l-141 0 3 324 c2 178 7 328 11 332 26 26 354 24 455 -2z m-154 -1115 c247 -21 387 -98 453 -248 33 -75 35 -200 3 -283 -43 -114 -149 -199 -300 -239 -88 -23 -281 -35 -392 -25 l-78 8 0 322 c0 178 3 357 6 399 l7 77 91 0 c50 0 144 -5 210 -11z"/>
    <path d="M2190 7205 l0 -265 611 -2 611 -3 -676 -972 -676 -972 0 -170 0 -171 1095 0 1095 0 0 265 0 265 -665 0 c-367 0 -665 4 -665 9 0 4 295 435 655 957 l655 949 0 188 0 187 -1020 0 -1020 0 0 -265z"/>
    <path d="M4710 6060 l0 -1410 320 0 320 0 0 1410 0 1410 -320 0 -320 0 0 -1410z"/>
    <path d="M10356 7398 c-3 -40 -10 -138 -16 -218 -80 -1053 -480 -2104 -1125 -2955 -213 -281 -508 -601 -760 -825 -902 -800 -2008 -1286 -3210 -1410 -101 -10 -424 -29 -502 -30 l-43 0 0 -345 c0 -313 2 -346 17 -352 25 -10 468 15 668 37 1597 180 3037 934 4102 2148 848 965 1389 2190 1532 3467 18 162 41 455 41 527 l0 28 -349 0 -349 0 -6 -72z"/>
    <path d="M2834 4276 c-36 -16 -74 -61 -74 -88 0 -45 29 -77 103 -109 59 -27 73 -62 36 -92 -18 -14 -32 -17 -59 -13 -73 13 -75 12 -75 -13 0 -31 39 -44 107 -37 60 6 94 29 108 71 18 56 -6 96 -82 136 -65 35 -80 58 -57 86 10 11 26 14 65 11 47 -4 53 -2 58 16 3 11 2 24 -2 28 -16 16 -97 18 -128 4z"/>
    <path d="M4063 4279 c-64 -18 -93 -96 -57 -148 9 -13 40 -34 68 -46 67 -30 82 -48 68 -79 -14 -30 -60 -41 -108 -26 -39 13 -39 13 -48 -16 -5 -18 -1 -24 25 -33 68 -23 151 -5 183 40 37 54 3 135 -68 159 -18 6 -43 21 -55 34 -19 20 -21 28 -11 46 10 19 18 21 67 18 50 -3 57 -1 64 19 7 18 3 23 -23 32 -36 13 -61 13 -105 0z"/>
    <path d="M2094 4265 c-14 -36 3 -45 81 -45 41 0 75 -3 75 -6 0 -3 -38 -61 -85 -129 -47 -68 -85 -130 -85 -139 0 -14 18 -16 135 -16 l135 0 0 25 c0 24 -2 24 -90 27 l-89 3 84 124 c47 69 85 135 85 148 0 23 -1 23 -120 23 -98 0 -122 -3 -126 -15z"/>
    <path d="M2410 4163 c0 -135 10 -180 45 -213 32 -31 109 -38 157 -16 59 28 72 63 76 214 l4 132 -36 0 -36 0 0 -130 c0 -126 -1 -132 -25 -155 -31 -32 -65 -32 -95 0 -23 24 -25 35 -28 155 l-4 130 -29 0 -29 0 0 -117z"/>
    <path d="M3060 4105 l0 -175 110 0 110 0 0 25 c0 24 -2 25 -75 25 l-75 0 0 50 0 50 65 0 c63 0 65 1 65 25 0 24 -2 25 -65 25 l-65 0 0 50 0 50 70 0 c68 0 70 1 70 25 l0 25 -105 0 -105 0 0 -175z"/>
    <path d="M3470 4100 l0 -180 30 0 30 0 0 180 0 180 -30 0 -30 0 0 -180z"/>
    <path d="M3620 4105 l0 -175 30 0 29 0 3 129 3 129 76 -131 c70 -122 78 -132 107 -135 l32 -3 0 181 0 181 -27 -3 -28 -3 1 -129 c1 -120 0 -127 -13 -100 -8 16 -42 75 -75 132 -60 102 -60 102 -99 102 l-39 0 0 -175z"/>
    <path d="M4250 4256 c0 -23 4 -25 53 -28 l52 -3 3 -147 3 -148 29 0 30 0 0 150 0 150 50 0 c47 0 50 2 50 25 l0 25 -135 0 -135 0 0 -24z"/>
    <path d="M4580 4105 l0 -175 35 0 35 0 0 175 0 175 -35 0 -35 0 0 -175z"/>
    <path d="M4700 4256 c0 -23 4 -25 53 -28 l52 -3 3 -147 3 -148 29 0 30 0 0 150 0 150 50 0 c47 0 50 2 50 25 l0 25 -135 0 -135 0 0 -24z"/>
    <path d="M5031 4163 c0 -65 6 -136 13 -158 22 -74 108 -105 192 -70 57 23 74 74 74 223 l0 122 -30 0 -30 0 0 -97 c-1 -118 -12 -172 -41 -195 -29 -25 -55 -22 -84 7 -24 23 -25 29 -25 155 l0 130 -35 0 -35 0 1 -117z"/>
    <path d="M5370 4255 c0 -23 3 -25 50 -25 l50 0 0 -150 0 -150 30 0 30 0 0 150 0 150 55 0 c52 0 55 1 55 25 l0 25 -135 0 -135 0 0 -25z"/>
    <path d="M5700 4100 l0 -180 105 0 105 0 0 30 0 30 -75 0 -75 0 0 50 0 50 65 0 c63 0 65 1 65 25 0 24 -2 25 -65 25 l-65 0 0 50 0 50 70 0 c68 0 70 1 70 25 l0 25 -100 0 -100 0 0 -180z"/>
    <path d="M6100 4100 l0 -180 68 0 c75 0 143 25 161 58 20 37 13 82 -17 112 l-28 28 23 26 c25 29 29 56 13 87 -18 33 -64 49 -145 49 l-75 0 0 -180z m154 109 c27 -38 -5 -79 -61 -79 -33 0 -33 0 -33 50 l0 50 39 0 c29 0 44 -6 55 -21z m1 -139 c8 -7 15 -25 15 -41 0 -34 -32 -59 -77 -59 l-33 0 0 61 0 62 40 -6 c23 -3 47 -11 55 -17z"/>
    <path d="M6420 4100 l0 -180 105 0 105 0 0 30 0 30 -75 0 -75 0 0 50 0 50 70 0 c68 0 70 1 70 25 0 23 -3 24 -67 27 l-68 3 0 45 0 45 73 3 c69 3 73 4 70 25 -3 21 -8 22 -105 25 l-103 3 0 -181z"/>
    <path d="M6710 4100 l0 -180 30 0 30 0 0 76 0 75 37 -3 c41 -3 52 -18 75 -98 13 -44 32 -58 62 -47 11 5 10 19 -5 74 -11 37 -26 73 -35 80 -13 10 -12 14 10 36 32 32 41 70 26 106 -17 43 -64 61 -154 61 l-76 0 0 -180z m158 118 c17 -17 15 -64 -4 -82 -9 -9 -32 -16 -55 -16 l-39 0 0 55 0 55 43 0 c24 0 48 -5 55 -12z"/>
    <path d="M7030 4106 l0 -176 105 0 105 0 0 25 c0 24 -2 25 -70 25 l-69 0 -3 148 -3 147 -32 3 -33 3 0 -175z"/>
    <path d="M7302 4103 l3 -178 30 0 30 0 3 178 2 177 -35 0 -35 0 2 -177z"/>
    <path d="M7460 4105 l0 -175 30 0 30 0 0 132 0 132 66 -115 c93 -162 90 -159 124 -159 l30 0 0 180 0 180 -31 0 -32 0 5 -129 5 -130 -41 72 c-108 188 -107 187 -148 187 l-38 0 0 -175z"/>
  </g>
</svg>
